<svg height="3902" width="720" xmlns="http://www.w3.org/2000/svg">
<rect height="3902" fill="#555" width="720"></rect>
<text fill="#7f7" font-family="Courier New" font-size="12" xml:space="preserve">
<tspan x="10" y="26">2015-11-20 20:29:45 +0800</tspan>
<tspan x="10" y="42">fix build</tspan>
<tspan x="10" y="58"></tspan>
<tspan x="10" y="74">2015-11-20 20:27:36 +0800</tspan>
<tspan x="10" y="90">lockdown dependency versions</tspan>
<tspan x="10" y="106"></tspan>
<tspan x="10" y="122">2015-08-20 11:59:45 +0800</tspan>
<tspan x="10" y="138">- npm publish 2015.8.2</tspan>
<tspan x="10" y="154">- fix tests for testCase_crudCreateMany_default</tspan>
<tspan x="10" y="170">- merge response.meta into response.data</tspan>
<tspan x="10" y="186">- add npm-script build-doc</tspan>
<tspan x="10" y="202"></tspan>
<tspan x="10" y="218">2015-08-07 20:09:57 +0800</tspan>
<tspan x="10" y="234">- npm publish 2015.8.1</tspan>
<tspan x="10" y="250">- add auto-generated api-doc</tspan>
<tspan x="10" y="266">- update example.js loading in test.js</tspan>
<tspan x="10" y="282">- migrate build to travis-ci's docker infrastructure</tspan>
<tspan x="10" y="298"></tspan>
<tspan x="10" y="314">2015-07-31 19:09:52 +0800</tspan>
<tspan x="10" y="330">- npm publish 2015.7.13</tspan>
<tspan x="10" y="346">- update README.md</tspan>
<tspan x="10" y="362">- update dependencies</tspan>
<tspan x="10" y="378"></tspan>
<tspan x="10" y="394">2015-07-27 21:18:00 +0800</tspan>
<tspan x="10" y="410">- npm publish 2015.7.12</tspan>
<tspan x="10" y="426">- add crudCreateMany / crudDeleteByQueryMany / crudReplaceMany</tspan>
<tspan x="10" y="442">- fix swmg.onErrorJsonapi not passing error.stack</tspan>
<tspan x="10" y="458">- remove validation check for swmg.crudUpdateOne, in order to remove require constraint</tspan>
<tspan x="10" y="474"></tspan>
<tspan x="10" y="490">2015-07-24 11:57:53 +0800</tspan>
<tspan x="10" y="506">- 2015.7.11</tspan>
<tspan x="10" y="522">- stringify values in swmg.cacheDict</tspan>
<tspan x="10" y="538">- add schema._crudApiList param</tspan>
<tspan x="10" y="554">- remove redundant methodPath._paramExtraDict feature</tspan>
<tspan x="10" y="570"></tspan>
<tspan x="10" y="586">2015-07-21 01:06:55 +0800</tspan>
<tspan x="10" y="602">- npm publish 2015.7.10</tspan>
<tspan x="10" y="618">- merge crudReplaceOrCreateOne into crudReplaceOne and crudUpdateOrCreateOne into crudUpdateOne \</tspan>
<tspan x="10" y="634">with optional upsert param</tspan>
<tspan x="10" y="650"></tspan>
<tspan x="10" y="666">2015-07-20 15:30:08 +0800</tspan>
<tspan x="10" y="682">- npm publish 2015.7.9</tspan>
<tspan x="10" y="698">- disable user login/logout for coverage analysis</tspan>
<tspan x="10" y="714">- revert test-code from README.md to test.js</tspan>
<tspan x="10" y="730">- replace swmg.normalizeErrorJsonapi with swmg.onErrorJsonapi</tspan>
<tspan x="10" y="746">- change api crudReplaceOrCreateOne's _timeCreated property to behave like crudCreateOne</tspan>
<tspan x="10" y="762">- rename property to field</tspan>
<tspan x="10" y="778">- add swmg.swaggerJson2014Dummy to pass validation warnings for auto-created schemas</tspan>
<tspan x="10" y="794">- add definition JsonapiRequest</tspan>
<tspan x="10" y="810">- hide _timeCreated and _timeModified from definitions</tspan>
<tspan x="10" y="826">- create JsonapiResponse with JsonapiResponseError and JsonapiResponseData merged together</tspan>
<tspan x="10" y="842"></tspan>
<tspan x="10" y="858">2015-07-19 08:27:22 +0800</tspan>
<tspan x="10" y="874">- npm publish 2015.7.8</tspan>
<tspan x="10" y="890">- add api-endpoint GET http://localhost:8080/api/v0/user/login</tspan>
<tspan x="10" y="906">- add api-endpoint GET http://localhost:8080/api/v0/user/logout</tspan>
<tspan x="10" y="922">- add UserLoginToken model</tspan>
<tspan x="10" y="938">- merge swmg.swaggerJsonTagsMerge into swmg.apiUpdate</tspan>
<tspan x="10" y="954">- fix petstore tag-descriptions being overwritten</tspan>
<tspan x="10" y="970"></tspan>
<tspan x="10" y="986">2015-07-10 23:44:29 +0800</tspan>
<tspan x="10" y="1002">- npm publish 2015.7.7</tspan>
<tspan x="10" y="1018">- add api-endpoint POST http://localhost:8080/api/v0/user/createWithArray</tspan>
<tspan x="10" y="1034">- add api-endpoint POST http://localhost:8080/api/v0/user/createWithList</tspan>
<tspan x="10" y="1050">- add api-endpoint POST http://localhost:8080/api/v0/pet/{petId}/uploadImage</tspan>
<tspan x="10" y="1066">- rename api /_TestCrudModel/* to /_test/* and expose it in example.js</tspan>
<tspan x="10" y="1082">- add array check in body</tspan>
<tspan x="10" y="1098"></tspan>
<tspan x="10" y="1114">2015-07-09 09:00:36 +0800</tspan>
<tspan x="10" y="1130">- npm publish 2015.7.7-a</tspan>
<tspan x="10" y="1146">- revamp middleware sequence to [swmg.middlewareBodyParse, swmg.middlewareSwagger, swmg.middlewa\</tspan>
<tspan x="10" y="1162">reError]</tspan>
<tspan x="10" y="1178">- add api-endpoint POST http://localhost:8080/api/v0/pet/{petId}</tspan>
<tspan x="10" y="1194">- rename normalizeParamSwagger to normalizeParamDictSwagger</tspan>
<tspan x="10" y="1210">- rename validate* to validateBy*</tspan>
<tspan x="10" y="1226"></tspan>
<tspan x="10" y="1242">2015-07-08 10:39:51 +0800</tspan>
<tspan x="10" y="1258">- npm publish 2015.7.6</tspan>
<tspan x="10" y="1274">- split middleware into middlewareHeadParse, middlewareBodyParse, middlewareCrudApi</tspan>
<tspan x="10" y="1290">- rename property to propertyDef</tspan>
<tspan x="10" y="1306">- rename parameter to param</tspan>
<tspan x="10" y="1322">- disable online validation</tspan>
<tspan x="10" y="1338">- add client-side param validation</tspan>
<tspan x="10" y="1354"></tspan>
<tspan x="10" y="1370">2015-07-07 06:46:13 +0800</tspan>
<tspan x="10" y="1386">- npm publish 2015.7.5</tspan>
<tspan x="10" y="1402">- add _collectionFixtureList option in swmg.collectionCreate</tspan>
<tspan x="10" y="1418">- add api-endpoint http://localhost:8080/api/v0/store/inventory</tspan>
<tspan x="10" y="1434">- rename JsonApi* to Jsonapi*</tspan>
<tspan x="10" y="1450"></tspan>
<tspan x="10" y="1466">2015-07-06 20:31:33 +0800</tspan>
<tspan x="10" y="1482">- npm publish 2015.7.4</tspan>
<tspan x="10" y="1498">- add crudAggregateMany api</tspan>
<tspan x="10" y="1514">- remove unused #/definitions/JsonApiLinks</tspan>
<tspan x="10" y="1530">- fix validation warnings</tspan>
<tspan x="10" y="1546">- update petstore responses</tspan>
<tspan x="10" y="1562">- deprecate local.onMiddlewareError in favor of local.middlewareError</tspan>
<tspan x="10" y="1578"></tspan>
<tspan x="10" y="1594">2015-07-04 12:07:24 +0800</tspan>
<tspan x="10" y="1610">- npm publish 2015.7.3</tspan>
<tspan x="10" y="1626">- replace schemaName with crudApi for tags</tspan>
<tspan x="10" y="1642">- add definition._collectionCreate param</tspan>
<tspan x="10" y="1658">- add definition._collectionCreateIndexList param</tspan>
<tspan x="10" y="1674">- add definition._collectionDrop param</tspan>
<tspan x="10" y="1690">- add swmg.collectionCreate</tspan>
<tspan x="10" y="1706">- integrate petstore-api into tests</tspan>
<tspan x="10" y="1722"></tspan>
<tspan x="10" y="1738">2015-07-03 16:27:07 +0800</tspan>
<tspan x="10" y="1754">- npm publish 2015.7.2</tspan>
<tspan x="10" y="1770">- auto-export example.js in test.js</tspan>
<tspan x="10" y="1786">- replace utility2.streamReadAll with utility2.middlewareBodyGet for parsing http-body</tspan>
<tspan x="10" y="1802">- add collectionFormat option for csv array</tspan>
<tspan x="10" y="1818">- revamp petstore-api</tspan>
<tspan x="10" y="1834"></tspan>
<tspan x="10" y="1850">2015-06-30 20:24:43 +0800</tspan>
<tspan x="10" y="1866">- npm publish 2015.7.1</tspan>
<tspan x="10" y="1882">- revamping crudApi</tspan>
<tspan x="10" y="1898"></tspan>
<tspan x="10" y="1914">2015-06-25 18:49:52 +0800</tspan>
<tspan x="10" y="1930">- npm publish 2015.6.13</tspan>
<tspan x="10" y="1946">- update dependencies</tspan>
<tspan x="10" y="1962"></tspan>
<tspan x="10" y="1978">2015-06-24 22:28:58 +0800</tspan>
<tspan x="10" y="1994">- npm publish 2015.6.12</tspan>
<tspan x="10" y="2010">- fix version breakage with latest npm install</tspan>
<tspan x="10" y="2026">- add crudGetDistinctValueByFieldMany api</tspan>
<tspan x="10" y="2042"></tspan>
<tspan x="10" y="2058">2015-06-22 01:00:26 +0800</tspan>
<tspan x="10" y="2074">- npm publish 2015.6.11-a</tspan>
<tspan x="10" y="2090">- add testCase_crudUpdateXxx_default</tspan>
<tspan x="10" y="2106">- add options parameter to testCase</tspan>
<tspan x="10" y="2122"></tspan>
<tspan x="10" y="2138">2015-06-20 00:07:30 +0800</tspan>
<tspan x="10" y="2154">- npm publish 2015.6.10-a</tspan>
<tspan x="10" y="2170">- remove modeErrorIgnore flag</tspan>
<tspan x="10" y="2186"></tspan>
<tspan x="10" y="2202">2015-06-15 12:26:08 +0800</tspan>
<tspan x="10" y="2218">- npm publish 2015.6.1-c</tspan>
<tspan x="10" y="2234">- change dependency from mongodb to mongodb-minimal</tspan>
<tspan x="10" y="2250"></tspan>
<tspan x="10" y="2266">2015-06-04 00:09:50 +0800</tspan>
<tspan x="10" y="2282">- npm publish 2015.6.1-a</tspan>
<tspan x="10" y="2298">- rename onTaskEnd to onParallel</tspan>
<tspan x="10" y="2314"></tspan>
<tspan x="10" y="2330">2015-05-19 09:55:56 +0800</tspan>
<tspan x="10" y="2346">- npm publish 2015.5.19-a</tspan>
<tspan x="10" y="2362">- add _testCase_crudGetXxx_default</tspan>
<tspan x="10" y="2378"></tspan>
<tspan x="10" y="2394">2015-05-18 16:02:42 +0800</tspan>
<tspan x="10" y="2410">- npm publish 2015.5.17-e</tspan>
<tspan x="10" y="2426">- rename namespace swmgdb to swmg</tspan>
<tspan x="10" y="2442">- add passwordSalt field to UserModel</tspan>
<tspan x="10" y="2458"></tspan>
<tspan x="10" y="2474">2015-05-18 01:31:58 +0800</tspan>
<tspan x="10" y="2490">- npm publish 2015.5.17-d</tspan>
<tspan x="10" y="2506">- fix crudGetByQueryMany api</tspan>
<tspan x="10" y="2522"></tspan>
<tspan x="10" y="2538">2015-05-18 01:11:04 +0800</tspan>
<tspan x="10" y="2554">- npm publish 2015.5.17-c</tspan>
<tspan x="10" y="2570">- update npm postinstall script</tspan>
<tspan x="10" y="2586"></tspan>
<tspan x="10" y="2602">2015-05-17 15:27:29 +0800</tspan>
<tspan x="10" y="2618">- npm publish 2015.5.17-b</tspan>
<tspan x="10" y="2634"></tspan>
<tspan x="10" y="2650">2015-05-17 15:02:57 +0800</tspan>
<tspan x="10" y="2666">- add demo screen-capture</tspan>
<tspan x="10" y="2682"></tspan>
<tspan x="10" y="2698">2015-05-17 14:07:50 +0800</tspan>
<tspan x="10" y="2714">- npm publish 2015.5.17-a</tspan>
<tspan x="10" y="2730">- add heroku deploy</tspan>
<tspan x="10" y="2746">- add testCase_validateXxx_default</tspan>
<tspan x="10" y="2762">- migrating to v0</tspan>
<tspan x="10" y="2778">- add swagger param parsing to middleware</tspan>
<tspan x="10" y="2794">- revampt to 100% use swagger-tools</tspan>
<tspan x="10" y="2810"></tspan>
<tspan x="10" y="2826">2015-05-16 13:41:55 +0800</tspan>
<tspan x="10" y="2842">- npm publish 2015.5.8-b</tspan>
<tspan x="10" y="2858">- add testCase_validateXxx_default</tspan>
<tspan x="10" y="2874">- migrating to v0</tspan>
<tspan x="10" y="2890">- add swagger param parsing to middleware</tspan>
<tspan x="10" y="2906">- revampt to 100% use swagger-tools</tspan>
<tspan x="10" y="2922"></tspan>
<tspan x="10" y="2938">2015-05-10 22:43:35 +0800</tspan>
<tspan x="10" y="2954">- npm publish 2015.5.10-a</tspan>
<tspan x="10" y="2970">- migrating cms2 to node-swagger-mongodb</tspan>
<tspan x="10" y="2986">- add swagger param parsing to middleware</tspan>
<tspan x="10" y="3002">- working local crud</tspan>
<tspan x="10" y="3018">- add middlewareAssetsCache and centralize assets into local.utility2.cacheDict.assets</tspan>
<tspan x="10" y="3034">- add swagger param parsing to middleware</tspan>
<tspan x="10" y="3050">- revampt to 100% use swagger-tools</tspan>
<tspan x="10" y="3066"></tspan>
<tspan x="10" y="3082">2015-05-04 12:44:57 +0800</tspan>
<tspan x="10" y="3098">- passing npm test</tspan>
<tspan x="10" y="3114">- use Infinity instead of NaN as fallback for modeNext</tspan>
<tspan x="10" y="3130"></tspan>
<tspan x="10" y="3146">2015-04-23 01:03:37 +0800</tspan>
<tspan x="10" y="3162">integrating swagger-tools</tspan>
<tspan x="10" y="3178"></tspan>
<tspan x="10" y="3194">2015-04-22 18:09:12 +0800</tspan>
<tspan x="10" y="3210">move User and Content models from index.js to test.js</tspan>
<tspan x="10" y="3226"></tspan>
<tspan x="10" y="3242">2015-04-20 10:29:33 +0800</tspan>
<tspan x="10" y="3258">integrating swaggerUi.api into node env</tspan>
<tspan x="10" y="3274"></tspan>
<tspan x="10" y="3290">2015-04-19 00:19:08 +0800</tspan>
<tspan x="10" y="3306">fix build</tspan>
<tspan x="10" y="3322"></tspan>
<tspan x="10" y="3338">2015-04-18 23:50:44 +0800</tspan>
<tspan x="10" y="3354">update build script</tspan>
<tspan x="10" y="3370"></tspan>
<tspan x="10" y="3386">2015-04-18 23:47:45 +0800</tspan>
<tspan x="10" y="3402">rudimentary npm test</tspan>
<tspan x="10" y="3418"></tspan>
<tspan x="10" y="3434">2015-04-18 23:23:12 +0800</tspan>
<tspan x="10" y="3450">revamp tests</tspan>
<tspan x="10" y="3466"></tspan>
<tspan x="10" y="3482">2015-04-18 02:38:46 +0800</tspan>
<tspan x="10" y="3498">testing userRole</tspan>
<tspan x="10" y="3514"></tspan>
<tspan x="10" y="3530">2015-03-26 18:52:06 +0800</tspan>
<tspan x="10" y="3546">hack swagger to accept "object" type params</tspan>
<tspan x="10" y="3562"></tspan>
<tspan x="10" y="3578">2015-03-26 01:41:54 +0800</tspan>
<tspan x="10" y="3594">force responseData.data to be an array</tspan>
<tspan x="10" y="3610"></tspan>
<tspan x="10" y="3626">2015-03-25 19:36:39 +0800</tspan>
<tspan x="10" y="3642">remove default aliasList property, and add aliasOf, parentId</tspan>
<tspan x="10" y="3658"></tspan>
<tspan x="10" y="3674">2015-03-24 20:53:20 +0800</tspan>
<tspan x="10" y="3690">'npm publish 2015.3.24-11'</tspan>
<tspan x="10" y="3706"></tspan>
<tspan x="10" y="3722">2015-03-24 18:23:29 +0800</tspan>
<tspan x="10" y="3738">'npm publish 2015.3.24-10'</tspan>
<tspan x="10" y="3754"></tspan>
<tspan x="10" y="3770">2015-03-24 17:58:29 +0800</tspan>
<tspan x="10" y="3786">rename onParallel to onTaskEnd</tspan>
<tspan x="10" y="3802"></tspan>
<tspan x="10" y="3818">2015-03-23 00:03:11 +0800</tspan>
<tspan x="10" y="3834">recursively validate $ref in model properties</tspan>
<tspan x="10" y="3850"></tspan>
<tspan x="10" y="3866">2015-03-22 20:27:52 +0800</tspan>
<tspan x="10" y="3882">define operations by operationId</tspan>
</text>
</svg>
