<svg height="526" width="720" xmlns="http://www.w3.org/2000/svg">
<rect height="526" fill="#555" width="720"></rect>
<text fill="#7f7" font-family="Courier New" font-size="12" xml:space="preserve">
<tspan x="10" y="26"></tspan>
<tspan x="10" y="42">[MODE_BUILD=testExampleJs] - 2015-08-17T16:27:53Z - testing example.js</tspan>
<tspan x="10" y="58"></tspan>
<tspan x="10" y="74">jslint-lite@2015.6.3 node_modules/jslint-lite</tspan>
<tspan x="10" y="90">npm install swagger-mongodb &amp;&amp;  npm_config_server_port=1337 node example.js</tspan>
<tspan x="10" y="106"></tspan>
<tspan x="10" y="122"></tspan>
<tspan x="10" y="138">&gt; mongodb-minimal@2015.6.4 postinstall /tmp/app/node_modules/swagger-mongodb/node_modules/mongod\</tspan>
<tspan x="10" y="154">b-minimal</tspan>
<tspan x="10" y="170">&gt; mkdir -p node_modules &amp;&amp; printf "module.exports = require('../bson/browser_build/bson.js')();</tspan>
<tspan x="10" y="186">module.exports.native = module.exports.pure = function () {</tspan>
<tspan x="10" y="202">    return module.exports;</tspan>
<tspan x="10" y="218">};</tspan>
<tspan x="10" y="234">module.exports.ObjectId = module.exports.ObjectID;</tspan>
<tspan x="10" y="250">" &gt; node_modules/bson.js &amp;&amp; printf "module.exports = require('../es6-promise');" &gt; node_modules/\</tspan>
<tspan x="10" y="266">es6-promise.js &amp;&amp; printf "module.exports = require('../mongodb');" &gt; node_modules/mongodb.js &amp;&amp; \</tspan>
<tspan x="10" y="282">printf "module.exports = require('../mongodb-core');" &gt; node_modules/mongodb-core.js</tspan>
<tspan x="10" y="298"></tspan>
<tspan x="10" y="314"></tspan>
<tspan x="10" y="330">&gt; utility2@2015.8.3 postinstall /tmp/app/node_modules/swagger-mongodb/node_modules/utility2</tspan>
<tspan x="10" y="346">&gt; ./index.sh shRun shReadmeExportPackageJson</tspan>
<tspan x="10" y="362"></tspan>
<tspan x="10" y="378">swagger-mongodb@2015.8.1 node_modules/swagger-mongodb</tspan>
<tspan x="10" y="394">├── mongodb-minimal@2015.6.4</tspan>
<tspan x="10" y="410">├── swagger-ui-lite@2015.6.2</tspan>
<tspan x="10" y="426">└── utility2@2015.8.3 (istanbul-lite@2015.6.2)</tspan>
<tspan x="10" y="442">server starting on port 1337</tspan>
<tspan x="10" y="458">dropping collection SwmgOrder ...</tspan>
<tspan x="10" y="474">dropping collection SwmgUser ...</tspan>
<tspan x="10" y="490">dropping collection SwmgPet ...</tspan>
<tspan x="10" y="506">server stopping on port 1337</tspan>
</text>
</svg>
