<svg height="3854" width="720" xmlns="http://www.w3.org/2000/svg">
<rect height="3854" fill="#555" width="720"></rect>
<text fill="#7f7" font-family="Courier New" font-size="12" xml:space="preserve">
<tspan x="10" y="26">2015-08-20 11:31:22 +0800</tspan>
<tspan x="10" y="42">re-enable tests</tspan>
<tspan x="10" y="58"></tspan>
<tspan x="10" y="74">2015-08-20 11:25:59 +0800</tspan>
<tspan x="10" y="90">fix build-doc</tspan>
<tspan x="10" y="106"></tspan>
<tspan x="10" y="122">2015-08-20 11:21:29 +0800</tspan>
<tspan x="10" y="138">disable published test</tspan>
<tspan x="10" y="154"></tspan>
<tspan x="10" y="170">2015-08-20 11:07:19 +0800</tspan>
<tspan x="10" y="186">disable crud tests</tspan>
<tspan x="10" y="202"></tspan>
<tspan x="10" y="218">2015-08-20 10:39:19 +0800</tspan>
<tspan x="10" y="234">test unordered bulk write</tspan>
<tspan x="10" y="250"></tspan>
<tspan x="10" y="266">2015-08-20 10:27:44 +0800</tspan>
<tspan x="10" y="282">fix build</tspan>
<tspan x="10" y="298"></tspan>
<tspan x="10" y="314">2015-08-20 09:48:40 +0800</tspan>
<tspan x="10" y="330">fix crud modify</tspan>
<tspan x="10" y="346"></tspan>
<tspan x="10" y="362">2015-08-20 08:16:52 +0800</tspan>
<tspan x="10" y="378">'update README.md'</tspan>
<tspan x="10" y="394"></tspan>
<tspan x="10" y="410">2015-08-19 18:54:56 +0800</tspan>
<tspan x="10" y="426">- add npm-script build-doc</tspan>
<tspan x="10" y="442"></tspan>
<tspan x="10" y="458">2015-08-19 18:54:34 +0800</tspan>
<tspan x="10" y="474">- add npm-script build-doc</tspan>
<tspan x="10" y="490"></tspan>
<tspan x="10" y="506">2015-08-19 15:20:11 +0800</tspan>
<tspan x="10" y="522">fix build</tspan>
<tspan x="10" y="538"></tspan>
<tspan x="10" y="554">2015-08-19 15:17:11 +0800</tspan>
<tspan x="10" y="570">fix build</tspan>
<tspan x="10" y="586"></tspan>
<tspan x="10" y="602">2015-08-19 15:16:34 +0800</tspan>
<tspan x="10" y="618">update README.md</tspan>
<tspan x="10" y="634"></tspan>
<tspan x="10" y="650">2015-08-18 00:27:00 +0800</tspan>
<tspan x="10" y="666">'update devDependencies and add api-doc if appropriate'</tspan>
<tspan x="10" y="682"></tspan>
<tspan x="10" y="698">2015-08-12 22:06:01 +0800</tspan>
<tspan x="10" y="714">update README.md</tspan>
<tspan x="10" y="730"></tspan>
<tspan x="10" y="746">2015-08-07 20:09:57 +0800</tspan>
<tspan x="10" y="762">- npm publish 2015.8.1</tspan>
<tspan x="10" y="778">- add auto-generated api-doc</tspan>
<tspan x="10" y="794">- update example.js loading in test.js</tspan>
<tspan x="10" y="810">- migrate build to travis-ci's docker infrastructure</tspan>
<tspan x="10" y="826"></tspan>
<tspan x="10" y="842">2015-07-31 19:09:52 +0800</tspan>
<tspan x="10" y="858">- npm publish 2015.7.13</tspan>
<tspan x="10" y="874">- update README.md</tspan>
<tspan x="10" y="890">- update dependencies</tspan>
<tspan x="10" y="906"></tspan>
<tspan x="10" y="922">2015-07-27 21:18:00 +0800</tspan>
<tspan x="10" y="938">- npm publish 2015.7.12</tspan>
<tspan x="10" y="954">- add crudCreateMany / crudDeleteByQueryMany / crudReplaceMany</tspan>
<tspan x="10" y="970">- fix swmg.onErrorJsonapi not passing error.stack</tspan>
<tspan x="10" y="986">- remove validation check for swmg.crudUpdateOne, in order to remove require constraint</tspan>
<tspan x="10" y="1002"></tspan>
<tspan x="10" y="1018">2015-07-24 11:57:53 +0800</tspan>
<tspan x="10" y="1034">- 2015.7.11</tspan>
<tspan x="10" y="1050">- stringify values in swmg.cacheDict</tspan>
<tspan x="10" y="1066">- add schema._crudApiList param</tspan>
<tspan x="10" y="1082">- remove redundant methodPath._paramExtraDict feature</tspan>
<tspan x="10" y="1098"></tspan>
<tspan x="10" y="1114">2015-07-21 01:06:55 +0800</tspan>
<tspan x="10" y="1130">- npm publish 2015.7.10</tspan>
<tspan x="10" y="1146">- merge crudReplaceOrCreateOne into crudReplaceOne and crudUpdateOrCreateOne into crudUpdateOne \</tspan>
<tspan x="10" y="1162">with optional upsert param</tspan>
<tspan x="10" y="1178"></tspan>
<tspan x="10" y="1194">2015-07-20 15:30:08 +0800</tspan>
<tspan x="10" y="1210">- npm publish 2015.7.9</tspan>
<tspan x="10" y="1226">- disable user login/logout for coverage analysis</tspan>
<tspan x="10" y="1242">- revert test-code from README.md to test.js</tspan>
<tspan x="10" y="1258">- replace swmg.normalizeErrorJsonapi with swmg.onErrorJsonapi</tspan>
<tspan x="10" y="1274">- change api crudReplaceOrCreateOne's _timeCreated property to behave like crudCreateOne</tspan>
<tspan x="10" y="1290">- rename property to field</tspan>
<tspan x="10" y="1306">- add swmg.swaggerJson2014Dummy to pass validation warnings for auto-created schemas</tspan>
<tspan x="10" y="1322">- add definition JsonapiRequest</tspan>
<tspan x="10" y="1338">- hide _timeCreated and _timeModified from definitions</tspan>
<tspan x="10" y="1354">- create JsonapiResponse with JsonapiResponseError and JsonapiResponseData merged together</tspan>
<tspan x="10" y="1370"></tspan>
<tspan x="10" y="1386">2015-07-19 08:27:22 +0800</tspan>
<tspan x="10" y="1402">- npm publish 2015.7.8</tspan>
<tspan x="10" y="1418">- add api-endpoint GET http://localhost:8080/api/v0/user/login</tspan>
<tspan x="10" y="1434">- add api-endpoint GET http://localhost:8080/api/v0/user/logout</tspan>
<tspan x="10" y="1450">- add UserLoginToken model</tspan>
<tspan x="10" y="1466">- merge swmg.swaggerJsonTagsMerge into swmg.apiUpdate</tspan>
<tspan x="10" y="1482">- fix petstore tag-descriptions being overwritten</tspan>
<tspan x="10" y="1498"></tspan>
<tspan x="10" y="1514">2015-07-10 23:44:29 +0800</tspan>
<tspan x="10" y="1530">- npm publish 2015.7.7</tspan>
<tspan x="10" y="1546">- add api-endpoint POST http://localhost:8080/api/v0/user/createWithArray</tspan>
<tspan x="10" y="1562">- add api-endpoint POST http://localhost:8080/api/v0/user/createWithList</tspan>
<tspan x="10" y="1578">- add api-endpoint POST http://localhost:8080/api/v0/pet/{petId}/uploadImage</tspan>
<tspan x="10" y="1594">- rename api /_TestCrudModel/* to /_test/* and expose it in example.js</tspan>
<tspan x="10" y="1610">- add array check in body</tspan>
<tspan x="10" y="1626"></tspan>
<tspan x="10" y="1642">2015-07-09 09:00:36 +0800</tspan>
<tspan x="10" y="1658">- npm publish 2015.7.7-a</tspan>
<tspan x="10" y="1674">- revamp middleware sequence to [swmg.middlewareBodyParse, swmg.middlewareSwagger, swmg.middlewa\</tspan>
<tspan x="10" y="1690">reError]</tspan>
<tspan x="10" y="1706">- add api-endpoint POST http://localhost:8080/api/v0/pet/{petId}</tspan>
<tspan x="10" y="1722">- rename normalizeParamSwagger to normalizeParamDictSwagger</tspan>
<tspan x="10" y="1738">- rename validate* to validateBy*</tspan>
<tspan x="10" y="1754"></tspan>
<tspan x="10" y="1770">2015-07-08 10:39:51 +0800</tspan>
<tspan x="10" y="1786">- npm publish 2015.7.6</tspan>
<tspan x="10" y="1802">- split middleware into middlewareHeadParse, middlewareBodyParse, middlewareCrudApi</tspan>
<tspan x="10" y="1818">- rename property to propertyDef</tspan>
<tspan x="10" y="1834">- rename parameter to param</tspan>
<tspan x="10" y="1850">- disable online validation</tspan>
<tspan x="10" y="1866">- add client-side param validation</tspan>
<tspan x="10" y="1882"></tspan>
<tspan x="10" y="1898">2015-07-07 06:46:13 +0800</tspan>
<tspan x="10" y="1914">- npm publish 2015.7.5</tspan>
<tspan x="10" y="1930">- add _collectionFixtureList option in swmg.collectionCreate</tspan>
<tspan x="10" y="1946">- add api-endpoint http://localhost:8080/api/v0/store/inventory</tspan>
<tspan x="10" y="1962">- rename JsonApi* to Jsonapi*</tspan>
<tspan x="10" y="1978"></tspan>
<tspan x="10" y="1994">2015-07-06 20:31:33 +0800</tspan>
<tspan x="10" y="2010">- npm publish 2015.7.4</tspan>
<tspan x="10" y="2026">- add crudAggregateMany api</tspan>
<tspan x="10" y="2042">- remove unused #/definitions/JsonApiLinks</tspan>
<tspan x="10" y="2058">- fix validation warnings</tspan>
<tspan x="10" y="2074">- update petstore responses</tspan>
<tspan x="10" y="2090">- deprecate local.onMiddlewareError in favor of local.middlewareError</tspan>
<tspan x="10" y="2106"></tspan>
<tspan x="10" y="2122">2015-07-04 12:07:24 +0800</tspan>
<tspan x="10" y="2138">- npm publish 2015.7.3</tspan>
<tspan x="10" y="2154">- replace schemaName with crudApi for tags</tspan>
<tspan x="10" y="2170">- add definition._collectionCreate param</tspan>
<tspan x="10" y="2186">- add definition._collectionCreateIndexList param</tspan>
<tspan x="10" y="2202">- add definition._collectionDrop param</tspan>
<tspan x="10" y="2218">- add swmg.collectionCreate</tspan>
<tspan x="10" y="2234">- integrate petstore-api into tests</tspan>
<tspan x="10" y="2250"></tspan>
<tspan x="10" y="2266">2015-07-03 16:27:07 +0800</tspan>
<tspan x="10" y="2282">- npm publish 2015.7.2</tspan>
<tspan x="10" y="2298">- auto-export example.js in test.js</tspan>
<tspan x="10" y="2314">- replace utility2.streamReadAll with utility2.middlewareBodyGet for parsing http-body</tspan>
<tspan x="10" y="2330">- add collectionFormat option for csv array</tspan>
<tspan x="10" y="2346">- revamp petstore-api</tspan>
<tspan x="10" y="2362"></tspan>
<tspan x="10" y="2378">2015-06-30 20:24:43 +0800</tspan>
<tspan x="10" y="2394">- npm publish 2015.7.1</tspan>
<tspan x="10" y="2410">- revamping crudApi</tspan>
<tspan x="10" y="2426"></tspan>
<tspan x="10" y="2442">2015-06-25 18:49:52 +0800</tspan>
<tspan x="10" y="2458">- npm publish 2015.6.13</tspan>
<tspan x="10" y="2474">- update dependencies</tspan>
<tspan x="10" y="2490"></tspan>
<tspan x="10" y="2506">2015-06-24 22:28:58 +0800</tspan>
<tspan x="10" y="2522">- npm publish 2015.6.12</tspan>
<tspan x="10" y="2538">- fix version breakage with latest npm install</tspan>
<tspan x="10" y="2554">- add crudGetDistinctValueByFieldMany api</tspan>
<tspan x="10" y="2570"></tspan>
<tspan x="10" y="2586">2015-06-22 01:00:26 +0800</tspan>
<tspan x="10" y="2602">- npm publish 2015.6.11-a</tspan>
<tspan x="10" y="2618">- add testCase_crudUpdateXxx_default</tspan>
<tspan x="10" y="2634">- add options parameter to testCase</tspan>
<tspan x="10" y="2650"></tspan>
<tspan x="10" y="2666">2015-06-20 00:07:30 +0800</tspan>
<tspan x="10" y="2682">- npm publish 2015.6.10-a</tspan>
<tspan x="10" y="2698">- remove modeErrorIgnore flag</tspan>
<tspan x="10" y="2714"></tspan>
<tspan x="10" y="2730">2015-06-15 12:26:08 +0800</tspan>
<tspan x="10" y="2746">- npm publish 2015.6.1-c</tspan>
<tspan x="10" y="2762">- change dependency from mongodb to mongodb-minimal</tspan>
<tspan x="10" y="2778"></tspan>
<tspan x="10" y="2794">2015-06-04 00:09:50 +0800</tspan>
<tspan x="10" y="2810">- npm publish 2015.6.1-a</tspan>
<tspan x="10" y="2826">- rename onTaskEnd to onParallel</tspan>
<tspan x="10" y="2842"></tspan>
<tspan x="10" y="2858">2015-05-19 09:55:56 +0800</tspan>
<tspan x="10" y="2874">- npm publish 2015.5.19-a</tspan>
<tspan x="10" y="2890">- add _testCase_crudGetXxx_default</tspan>
<tspan x="10" y="2906"></tspan>
<tspan x="10" y="2922">2015-05-18 16:02:42 +0800</tspan>
<tspan x="10" y="2938">- npm publish 2015.5.17-e</tspan>
<tspan x="10" y="2954">- rename namespace swmgdb to swmg</tspan>
<tspan x="10" y="2970">- add passwordSalt field to UserModel</tspan>
<tspan x="10" y="2986"></tspan>
<tspan x="10" y="3002">2015-05-18 01:31:58 +0800</tspan>
<tspan x="10" y="3018">- npm publish 2015.5.17-d</tspan>
<tspan x="10" y="3034">- fix crudGetByQueryMany api</tspan>
<tspan x="10" y="3050"></tspan>
<tspan x="10" y="3066">2015-05-18 01:11:04 +0800</tspan>
<tspan x="10" y="3082">- npm publish 2015.5.17-c</tspan>
<tspan x="10" y="3098">- update npm postinstall script</tspan>
<tspan x="10" y="3114"></tspan>
<tspan x="10" y="3130">2015-05-17 15:27:29 +0800</tspan>
<tspan x="10" y="3146">- npm publish 2015.5.17-b</tspan>
<tspan x="10" y="3162"></tspan>
<tspan x="10" y="3178">2015-05-17 15:02:57 +0800</tspan>
<tspan x="10" y="3194">- add demo screen-capture</tspan>
<tspan x="10" y="3210"></tspan>
<tspan x="10" y="3226">2015-05-17 14:07:50 +0800</tspan>
<tspan x="10" y="3242">- npm publish 2015.5.17-a</tspan>
<tspan x="10" y="3258">- add heroku deploy</tspan>
<tspan x="10" y="3274">- add testCase_validateXxx_default</tspan>
<tspan x="10" y="3290">- migrating to v0</tspan>
<tspan x="10" y="3306">- add swagger param parsing to middleware</tspan>
<tspan x="10" y="3322">- revampt to 100% use swagger-tools</tspan>
<tspan x="10" y="3338"></tspan>
<tspan x="10" y="3354">2015-05-16 13:41:55 +0800</tspan>
<tspan x="10" y="3370">- npm publish 2015.5.8-b</tspan>
<tspan x="10" y="3386">- add testCase_validateXxx_default</tspan>
<tspan x="10" y="3402">- migrating to v0</tspan>
<tspan x="10" y="3418">- add swagger param parsing to middleware</tspan>
<tspan x="10" y="3434">- revampt to 100% use swagger-tools</tspan>
<tspan x="10" y="3450"></tspan>
<tspan x="10" y="3466">2015-05-10 22:43:35 +0800</tspan>
<tspan x="10" y="3482">- npm publish 2015.5.10-a</tspan>
<tspan x="10" y="3498">- migrating cms2 to node-swagger-mongodb</tspan>
<tspan x="10" y="3514">- add swagger param parsing to middleware</tspan>
<tspan x="10" y="3530">- working local crud</tspan>
<tspan x="10" y="3546">- add middlewareAssetsCache and centralize assets into local.utility2.cacheDict.assets</tspan>
<tspan x="10" y="3562">- add swagger param parsing to middleware</tspan>
<tspan x="10" y="3578">- revampt to 100% use swagger-tools</tspan>
<tspan x="10" y="3594"></tspan>
<tspan x="10" y="3610">2015-05-04 12:44:57 +0800</tspan>
<tspan x="10" y="3626">- passing npm test</tspan>
<tspan x="10" y="3642">- use Infinity instead of NaN as fallback for modeNext</tspan>
<tspan x="10" y="3658"></tspan>
<tspan x="10" y="3674">2015-04-23 01:03:37 +0800</tspan>
<tspan x="10" y="3690">integrating swagger-tools</tspan>
<tspan x="10" y="3706"></tspan>
<tspan x="10" y="3722">2015-04-22 18:09:12 +0800</tspan>
<tspan x="10" y="3738">move User and Content models from index.js to test.js</tspan>
<tspan x="10" y="3754"></tspan>
<tspan x="10" y="3770">2015-04-20 10:29:33 +0800</tspan>
<tspan x="10" y="3786">integrating swaggerUi.api into node env</tspan>
<tspan x="10" y="3802"></tspan>
<tspan x="10" y="3818">2015-04-19 00:19:08 +0800</tspan>
<tspan x="10" y="3834">fix build</tspan>
</text>
</svg>
