<svg height="3902" width="720" xmlns="http://www.w3.org/2000/svg">
<rect height="3902" fill="#555" width="720"></rect>
<text fill="#7f7" font-family="Courier New" font-size="12" xml:space="preserve">
<tspan x="10" y="26">2015-08-31 16:31:59 +0800</tspan>
<tspan x="10" y="42">Update README.md</tspan>
<tspan x="10" y="58">2015-08-20 11:59:45 +0800</tspan>
<tspan x="10" y="74">- npm publish 2015.8.2</tspan>
<tspan x="10" y="90">- fix tests for testCase_crudCreateMany_default</tspan>
<tspan x="10" y="106">- merge response.meta into response.data</tspan>
<tspan x="10" y="122">- add npm-script build-doc</tspan>
<tspan x="10" y="138"></tspan>
<tspan x="10" y="154">2015-08-07 20:09:57 +0800</tspan>
<tspan x="10" y="170">- npm publish 2015.8.1</tspan>
<tspan x="10" y="186">- add auto-generated api-doc</tspan>
<tspan x="10" y="202">- update example.js loading in test.js</tspan>
<tspan x="10" y="218">- migrate build to travis-ci's docker infrastructure</tspan>
<tspan x="10" y="234"></tspan>
<tspan x="10" y="250">2015-07-31 19:09:52 +0800</tspan>
<tspan x="10" y="266">- npm publish 2015.7.13</tspan>
<tspan x="10" y="282">- update README.md</tspan>
<tspan x="10" y="298">- update dependencies</tspan>
<tspan x="10" y="314"></tspan>
<tspan x="10" y="330">2015-07-27 21:18:00 +0800</tspan>
<tspan x="10" y="346">- npm publish 2015.7.12</tspan>
<tspan x="10" y="362">- add crudCreateMany / crudDeleteByQueryMany / crudReplaceMany</tspan>
<tspan x="10" y="378">- fix swmg.onErrorJsonapi not passing error.stack</tspan>
<tspan x="10" y="394">- remove validation check for swmg.crudUpdateOne, in order to remove require constraint</tspan>
<tspan x="10" y="410"></tspan>
<tspan x="10" y="426">2015-07-24 11:57:53 +0800</tspan>
<tspan x="10" y="442">- 2015.7.11</tspan>
<tspan x="10" y="458">- stringify values in swmg.cacheDict</tspan>
<tspan x="10" y="474">- add schema._crudApiList param</tspan>
<tspan x="10" y="490">- remove redundant methodPath._paramExtraDict feature</tspan>
<tspan x="10" y="506"></tspan>
<tspan x="10" y="522">2015-07-21 01:06:55 +0800</tspan>
<tspan x="10" y="538">- npm publish 2015.7.10</tspan>
<tspan x="10" y="554">- merge crudReplaceOrCreateOne into crudReplaceOne and crudUpdateOrCreateOne into crudUpdateOne \</tspan>
<tspan x="10" y="570">with optional upsert param</tspan>
<tspan x="10" y="586"></tspan>
<tspan x="10" y="602">2015-07-20 15:30:08 +0800</tspan>
<tspan x="10" y="618">- npm publish 2015.7.9</tspan>
<tspan x="10" y="634">- disable user login/logout for coverage analysis</tspan>
<tspan x="10" y="650">- revert test-code from README.md to test.js</tspan>
<tspan x="10" y="666">- replace swmg.normalizeErrorJsonapi with swmg.onErrorJsonapi</tspan>
<tspan x="10" y="682">- change api crudReplaceOrCreateOne's _timeCreated property to behave like crudCreateOne</tspan>
<tspan x="10" y="698">- rename property to field</tspan>
<tspan x="10" y="714">- add swmg.swaggerJson2014Dummy to pass validation warnings for auto-created schemas</tspan>
<tspan x="10" y="730">- add definition JsonapiRequest</tspan>
<tspan x="10" y="746">- hide _timeCreated and _timeModified from definitions</tspan>
<tspan x="10" y="762">- create JsonapiResponse with JsonapiResponseError and JsonapiResponseData merged together</tspan>
<tspan x="10" y="778"></tspan>
<tspan x="10" y="794">2015-07-19 08:27:22 +0800</tspan>
<tspan x="10" y="810">- npm publish 2015.7.8</tspan>
<tspan x="10" y="826">- add api-endpoint GET http://localhost:8080/api/v0/user/login</tspan>
<tspan x="10" y="842">- add api-endpoint GET http://localhost:8080/api/v0/user/logout</tspan>
<tspan x="10" y="858">- add UserLoginToken model</tspan>
<tspan x="10" y="874">- merge swmg.swaggerJsonTagsMerge into swmg.apiUpdate</tspan>
<tspan x="10" y="890">- fix petstore tag-descriptions being overwritten</tspan>
<tspan x="10" y="906"></tspan>
<tspan x="10" y="922">2015-07-10 23:44:29 +0800</tspan>
<tspan x="10" y="938">- npm publish 2015.7.7</tspan>
<tspan x="10" y="954">- add api-endpoint POST http://localhost:8080/api/v0/user/createWithArray</tspan>
<tspan x="10" y="970">- add api-endpoint POST http://localhost:8080/api/v0/user/createWithList</tspan>
<tspan x="10" y="986">- add api-endpoint POST http://localhost:8080/api/v0/pet/{petId}/uploadImage</tspan>
<tspan x="10" y="1002">- rename api /_TestCrudModel/* to /_test/* and expose it in example.js</tspan>
<tspan x="10" y="1018">- add array check in body</tspan>
<tspan x="10" y="1034"></tspan>
<tspan x="10" y="1050">2015-07-09 09:00:36 +0800</tspan>
<tspan x="10" y="1066">- npm publish 2015.7.7-a</tspan>
<tspan x="10" y="1082">- revamp middleware sequence to [swmg.middlewareBodyParse, swmg.middlewareSwagger, swmg.middlewa\</tspan>
<tspan x="10" y="1098">reError]</tspan>
<tspan x="10" y="1114">- add api-endpoint POST http://localhost:8080/api/v0/pet/{petId}</tspan>
<tspan x="10" y="1130">- rename normalizeParamSwagger to normalizeParamDictSwagger</tspan>
<tspan x="10" y="1146">- rename validate* to validateBy*</tspan>
<tspan x="10" y="1162"></tspan>
<tspan x="10" y="1178">2015-07-08 10:39:51 +0800</tspan>
<tspan x="10" y="1194">- npm publish 2015.7.6</tspan>
<tspan x="10" y="1210">- split middleware into middlewareHeadParse, middlewareBodyParse, middlewareCrudApi</tspan>
<tspan x="10" y="1226">- rename property to propertyDef</tspan>
<tspan x="10" y="1242">- rename parameter to param</tspan>
<tspan x="10" y="1258">- disable online validation</tspan>
<tspan x="10" y="1274">- add client-side param validation</tspan>
<tspan x="10" y="1290"></tspan>
<tspan x="10" y="1306">2015-07-07 06:46:13 +0800</tspan>
<tspan x="10" y="1322">- npm publish 2015.7.5</tspan>
<tspan x="10" y="1338">- add _collectionFixtureList option in swmg.collectionCreate</tspan>
<tspan x="10" y="1354">- add api-endpoint http://localhost:8080/api/v0/store/inventory</tspan>
<tspan x="10" y="1370">- rename JsonApi* to Jsonapi*</tspan>
<tspan x="10" y="1386"></tspan>
<tspan x="10" y="1402">2015-07-06 20:31:33 +0800</tspan>
<tspan x="10" y="1418">- npm publish 2015.7.4</tspan>
<tspan x="10" y="1434">- add crudAggregateMany api</tspan>
<tspan x="10" y="1450">- remove unused #/definitions/JsonApiLinks</tspan>
<tspan x="10" y="1466">- fix validation warnings</tspan>
<tspan x="10" y="1482">- update petstore responses</tspan>
<tspan x="10" y="1498">- deprecate local.onMiddlewareError in favor of local.middlewareError</tspan>
<tspan x="10" y="1514"></tspan>
<tspan x="10" y="1530">2015-07-04 12:07:24 +0800</tspan>
<tspan x="10" y="1546">- npm publish 2015.7.3</tspan>
<tspan x="10" y="1562">- replace schemaName with crudApi for tags</tspan>
<tspan x="10" y="1578">- add definition._collectionCreate param</tspan>
<tspan x="10" y="1594">- add definition._collectionCreateIndexList param</tspan>
<tspan x="10" y="1610">- add definition._collectionDrop param</tspan>
<tspan x="10" y="1626">- add swmg.collectionCreate</tspan>
<tspan x="10" y="1642">- integrate petstore-api into tests</tspan>
<tspan x="10" y="1658"></tspan>
<tspan x="10" y="1674">2015-07-03 16:27:07 +0800</tspan>
<tspan x="10" y="1690">- npm publish 2015.7.2</tspan>
<tspan x="10" y="1706">- auto-export example.js in test.js</tspan>
<tspan x="10" y="1722">- replace utility2.streamReadAll with utility2.middlewareBodyGet for parsing http-body</tspan>
<tspan x="10" y="1738">- add collectionFormat option for csv array</tspan>
<tspan x="10" y="1754">- revamp petstore-api</tspan>
<tspan x="10" y="1770"></tspan>
<tspan x="10" y="1786">2015-06-30 20:24:43 +0800</tspan>
<tspan x="10" y="1802">- npm publish 2015.7.1</tspan>
<tspan x="10" y="1818">- revamping crudApi</tspan>
<tspan x="10" y="1834"></tspan>
<tspan x="10" y="1850">2015-06-25 18:49:52 +0800</tspan>
<tspan x="10" y="1866">- npm publish 2015.6.13</tspan>
<tspan x="10" y="1882">- update dependencies</tspan>
<tspan x="10" y="1898"></tspan>
<tspan x="10" y="1914">2015-06-24 22:28:58 +0800</tspan>
<tspan x="10" y="1930">- npm publish 2015.6.12</tspan>
<tspan x="10" y="1946">- fix version breakage with latest npm install</tspan>
<tspan x="10" y="1962">- add crudGetDistinctValueByFieldMany api</tspan>
<tspan x="10" y="1978"></tspan>
<tspan x="10" y="1994">2015-06-22 01:00:26 +0800</tspan>
<tspan x="10" y="2010">- npm publish 2015.6.11-a</tspan>
<tspan x="10" y="2026">- add testCase_crudUpdateXxx_default</tspan>
<tspan x="10" y="2042">- add options parameter to testCase</tspan>
<tspan x="10" y="2058"></tspan>
<tspan x="10" y="2074">2015-06-20 00:07:30 +0800</tspan>
<tspan x="10" y="2090">- npm publish 2015.6.10-a</tspan>
<tspan x="10" y="2106">- remove modeErrorIgnore flag</tspan>
<tspan x="10" y="2122"></tspan>
<tspan x="10" y="2138">2015-06-15 12:26:08 +0800</tspan>
<tspan x="10" y="2154">- npm publish 2015.6.1-c</tspan>
<tspan x="10" y="2170">- change dependency from mongodb to mongodb-minimal</tspan>
<tspan x="10" y="2186"></tspan>
<tspan x="10" y="2202">2015-06-04 00:09:50 +0800</tspan>
<tspan x="10" y="2218">- npm publish 2015.6.1-a</tspan>
<tspan x="10" y="2234">- rename onTaskEnd to onParallel</tspan>
<tspan x="10" y="2250"></tspan>
<tspan x="10" y="2266">2015-05-19 09:55:56 +0800</tspan>
<tspan x="10" y="2282">- npm publish 2015.5.19-a</tspan>
<tspan x="10" y="2298">- add _testCase_crudGetXxx_default</tspan>
<tspan x="10" y="2314"></tspan>
<tspan x="10" y="2330">2015-05-18 16:02:42 +0800</tspan>
<tspan x="10" y="2346">- npm publish 2015.5.17-e</tspan>
<tspan x="10" y="2362">- rename namespace swmgdb to swmg</tspan>
<tspan x="10" y="2378">- add passwordSalt field to UserModel</tspan>
<tspan x="10" y="2394"></tspan>
<tspan x="10" y="2410">2015-05-18 01:31:58 +0800</tspan>
<tspan x="10" y="2426">- npm publish 2015.5.17-d</tspan>
<tspan x="10" y="2442">- fix crudGetByQueryMany api</tspan>
<tspan x="10" y="2458"></tspan>
<tspan x="10" y="2474">2015-05-18 01:11:04 +0800</tspan>
<tspan x="10" y="2490">- npm publish 2015.5.17-c</tspan>
<tspan x="10" y="2506">- update npm postinstall script</tspan>
<tspan x="10" y="2522"></tspan>
<tspan x="10" y="2538">2015-05-17 15:27:29 +0800</tspan>
<tspan x="10" y="2554">- npm publish 2015.5.17-b</tspan>
<tspan x="10" y="2570"></tspan>
<tspan x="10" y="2586">2015-05-17 15:02:57 +0800</tspan>
<tspan x="10" y="2602">- add demo screen-capture</tspan>
<tspan x="10" y="2618"></tspan>
<tspan x="10" y="2634">2015-05-17 14:07:50 +0800</tspan>
<tspan x="10" y="2650">- npm publish 2015.5.17-a</tspan>
<tspan x="10" y="2666">- add heroku deploy</tspan>
<tspan x="10" y="2682">- add testCase_validateXxx_default</tspan>
<tspan x="10" y="2698">- migrating to v0</tspan>
<tspan x="10" y="2714">- add swagger param parsing to middleware</tspan>
<tspan x="10" y="2730">- revampt to 100% use swagger-tools</tspan>
<tspan x="10" y="2746"></tspan>
<tspan x="10" y="2762">2015-05-16 13:41:55 +0800</tspan>
<tspan x="10" y="2778">- npm publish 2015.5.8-b</tspan>
<tspan x="10" y="2794">- add testCase_validateXxx_default</tspan>
<tspan x="10" y="2810">- migrating to v0</tspan>
<tspan x="10" y="2826">- add swagger param parsing to middleware</tspan>
<tspan x="10" y="2842">- revampt to 100% use swagger-tools</tspan>
<tspan x="10" y="2858"></tspan>
<tspan x="10" y="2874">2015-05-10 22:43:35 +0800</tspan>
<tspan x="10" y="2890">- npm publish 2015.5.10-a</tspan>
<tspan x="10" y="2906">- migrating cms2 to node-swagger-mongodb</tspan>
<tspan x="10" y="2922">- add swagger param parsing to middleware</tspan>
<tspan x="10" y="2938">- working local crud</tspan>
<tspan x="10" y="2954">- add middlewareAssetsCache and centralize assets into local.utility2.cacheDict.assets</tspan>
<tspan x="10" y="2970">- add swagger param parsing to middleware</tspan>
<tspan x="10" y="2986">- revampt to 100% use swagger-tools</tspan>
<tspan x="10" y="3002"></tspan>
<tspan x="10" y="3018">2015-05-04 12:44:57 +0800</tspan>
<tspan x="10" y="3034">- passing npm test</tspan>
<tspan x="10" y="3050">- use Infinity instead of NaN as fallback for modeNext</tspan>
<tspan x="10" y="3066"></tspan>
<tspan x="10" y="3082">2015-04-23 01:03:37 +0800</tspan>
<tspan x="10" y="3098">integrating swagger-tools</tspan>
<tspan x="10" y="3114"></tspan>
<tspan x="10" y="3130">2015-04-22 18:09:12 +0800</tspan>
<tspan x="10" y="3146">move User and Content models from index.js to test.js</tspan>
<tspan x="10" y="3162"></tspan>
<tspan x="10" y="3178">2015-04-20 10:29:33 +0800</tspan>
<tspan x="10" y="3194">integrating swaggerUi.api into node env</tspan>
<tspan x="10" y="3210"></tspan>
<tspan x="10" y="3226">2015-04-19 00:19:08 +0800</tspan>
<tspan x="10" y="3242">fix build</tspan>
<tspan x="10" y="3258"></tspan>
<tspan x="10" y="3274">2015-04-18 23:50:44 +0800</tspan>
<tspan x="10" y="3290">update build script</tspan>
<tspan x="10" y="3306"></tspan>
<tspan x="10" y="3322">2015-04-18 23:47:45 +0800</tspan>
<tspan x="10" y="3338">rudimentary npm test</tspan>
<tspan x="10" y="3354"></tspan>
<tspan x="10" y="3370">2015-04-18 23:23:12 +0800</tspan>
<tspan x="10" y="3386">revamp tests</tspan>
<tspan x="10" y="3402"></tspan>
<tspan x="10" y="3418">2015-04-18 02:38:46 +0800</tspan>
<tspan x="10" y="3434">testing userRole</tspan>
<tspan x="10" y="3450"></tspan>
<tspan x="10" y="3466">2015-03-26 18:52:06 +0800</tspan>
<tspan x="10" y="3482">hack swagger to accept "object" type params</tspan>
<tspan x="10" y="3498"></tspan>
<tspan x="10" y="3514">2015-03-26 01:41:54 +0800</tspan>
<tspan x="10" y="3530">force responseData.data to be an array</tspan>
<tspan x="10" y="3546"></tspan>
<tspan x="10" y="3562">2015-03-25 19:36:39 +0800</tspan>
<tspan x="10" y="3578">remove default aliasList property, and add aliasOf, parentId</tspan>
<tspan x="10" y="3594"></tspan>
<tspan x="10" y="3610">2015-03-24 20:53:20 +0800</tspan>
<tspan x="10" y="3626">'npm publish 2015.3.24-11'</tspan>
<tspan x="10" y="3642"></tspan>
<tspan x="10" y="3658">2015-03-24 18:23:29 +0800</tspan>
<tspan x="10" y="3674">'npm publish 2015.3.24-10'</tspan>
<tspan x="10" y="3690"></tspan>
<tspan x="10" y="3706">2015-03-24 17:58:29 +0800</tspan>
<tspan x="10" y="3722">rename onParallel to onTaskEnd</tspan>
<tspan x="10" y="3738"></tspan>
<tspan x="10" y="3754">2015-03-23 00:03:11 +0800</tspan>
<tspan x="10" y="3770">recursively validate $ref in model properties</tspan>
<tspan x="10" y="3786"></tspan>
<tspan x="10" y="3802">2015-03-22 20:27:52 +0800</tspan>
<tspan x="10" y="3818">define operations by operationId</tspan>
<tspan x="10" y="3834"></tspan>
<tspan x="10" y="3850">2015-03-22 19:26:30 +0800</tspan>
<tspan x="10" y="3866">- add ContentDraft model</tspan>
<tspan x="10" y="3882">- validate parameters</tspan>
</text>
</svg>
